<?xml version="1.0" encoding="utf-8"?>
<!-- Generator: Adobe Illustrator 16.0.0, SVG Export Plug-In . SVG Version: 6.00 Build 0)  -->
<!DOCTYPE svg PUBLIC "-//W3C//DTD SVG 1.1//EN" "http://www.w3.org/Graphics/SVG/1.1/DTD/svg11.dtd">
<svg version="1.1" id="Layer_1" xmlns="http://www.w3.org/2000/svg" xmlns:xlink="http://www.w3.org/1999/xlink" x="0px" y="0px"
	 width="200px" height="40px" viewBox="0 0 200 40" enable-background="new 0 0 200 40" xml:space="preserve">
<g>
	<g id="XMLID_37_">
		<path id="XMLID_42_" fill="#CFDF5F" d="M10.865,33.878c59.451,0.284,118.887-0.866,178.284-3.449
			c8.994-0.39,9.043-14.426,0-14.033c-59.396,2.584-118.833,3.733-178.284,3.447C1.833,19.799,1.823,33.832,10.865,33.878
			L10.865,33.878z"/>
	</g>
	<g id="XMLID_38_">
		<path id="XMLID_48_" fill="#CFDF5F" d="M10.865,23.568c59.451,0.286,118.887-0.862,178.284-3.448
			c8.994-0.39,9.043-14.426,0-14.033C129.752,8.673,70.315,9.822,10.865,9.536C1.833,9.492,1.823,23.524,10.865,23.568
			L10.865,23.568z"/>
	</g>
</g>
<g id="XMLID_39_" opacity="0.5">
	<path id="XMLID_49_" fill="#CFDF5F" d="M20.708,36.026c50.165-2.664,100.206-6.856,150.106-12.637
		c9.887-1.147,6.853-16.335-3.009-15.192c-48.524,5.62-97.182,9.797-145.962,12.391C12.032,21.107,10.773,36.556,20.708,36.026
		L20.708,36.026z"/>
</g>
</svg>
