<?xml version="1.0" encoding="utf-8"?>
<!-- Generator: Adobe Illustrator 16.0.0, SVG Export Plug-In . SVG Version: 6.00 Build 0)  -->
<!DOCTYPE svg PUBLIC "-//W3C//DTD SVG 1.1//EN" "http://www.w3.org/Graphics/SVG/1.1/DTD/svg11.dtd">
<svg version="1.1" id="Layer_1" xmlns="http://www.w3.org/2000/svg" xmlns:xlink="http://www.w3.org/1999/xlink" x="0px" y="0px"
	 width="500px" height="200px" viewBox="0 0 500 200" enable-background="new 0 0 500 200" xml:space="preserve">
<g>
	<path fill-rule="evenodd" clip-rule="evenodd" d="M383.942,123.729c5.663,0,11.218,0,16.603,0c0.611,3.406,0.91,6.748,1.841,9.899
		c2.831,9.589,9.403,15.895,18.564,19.313c14.455,5.392,29.029,5.573,43.095-1.144c11.053-5.278,13.25-16.584,11.105-25.515
		c-1.403-5.849-5.596-9.509-10.71-12.235c-6.946-3.704-14.571-5.3-22.124-7.155c-10.013-2.46-20.067-4.809-29.944-7.74
		c-4.123-1.224-8.046-3.503-11.694-5.865c-9.275-6.007-12.998-15.002-12.697-25.781c0.501-17.929,10.167-29.328,26.432-35.199
		c16.498-5.957,33.228-5.851,49.522,0.99c13.839,5.811,21.267,16.788,23.641,31.386c0.318,1.951,0.406,3.94,0.586,5.912
		c0.023,0.267-0.044,0.542-0.077,0.917c-5.628,0-11.196,0-16.881,0c-0.455-2.112-0.82-4.257-1.384-6.348
		c-2.681-9.928-8.853-16.68-18.747-19.595c-10.838-3.191-21.697-3.083-32.199,1.396c-9.489,4.046-14.258,13.228-12.428,23.355
		c0.894,4.95,4.015,8.306,8.2,10.807c6.422,3.836,13.61,5.461,20.773,7.117c11.357,2.624,22.893,4.565,33.787,8.915
		c8.377,3.345,15.849,7.943,20.479,16.052c7.337,12.857,7.358,36.699-13.342,49.39c-8.176,5.013-17.129,7.736-26.568,8.786
		c-12.912,1.435-25.589,0.313-37.745-4.588c-17.764-7.166-28.102-22.429-28.244-41.552
		C383.781,124.773,383.881,124.3,383.942,123.729z"/>
	<path fill-rule="evenodd" clip-rule="evenodd" d="M9.869,31.482c6.126,0,11.975,0,18.163,0c0,0.956,0,1.847,0,2.738
		c0,28.045-0.072,56.091,0.071,84.135c0.024,4.628,0.477,9.38,1.62,13.847c2.976,11.63,10.493,19.137,22.092,22.431
		c8.621,2.447,17.349,2.695,26.021,0.548c12.978-3.21,20.427-11.867,22.958-24.746c0.867-4.411,1.16-8.996,1.177-13.503
		c0.103-27.549,0.052-55.099,0.052-82.649c0-0.896,0-1.794,0-2.783c6.136,0,11.976,0,17.925,0c0.066,0.659,0.169,1.206,0.169,1.752
		c-0.016,29.391,0.017,58.782-0.095,88.173c-0.042,10.727-2.35,20.939-8.328,30.047c-6.664,10.152-16.389,15.897-27.996,18.416
		c-15.753,3.419-31.417,2.91-46.518-3.107c-14.798-5.896-22.988-17.404-25.909-32.763c-0.894-4.697-1.321-9.553-1.34-14.338
		C9.81,90.927,9.869,62.174,9.869,33.42C9.869,32.858,9.869,32.296,9.869,31.482z"/>
	<path fill-rule="evenodd" clip-rule="evenodd" d="M253.9,71.553c-6.115,0-11.98,0-17.871,0c-0.875-2.407-1.579-4.852-2.626-7.14
		c-5.601-12.241-15.616-18.485-28.556-20.345c-10.171-1.461-20.078-0.349-29.27,4.6c-10.759,5.792-17.392,15.056-20.894,26.472
		c-5.986,19.514-5.472,38.925,3.231,57.543c8.833,18.896,26.427,25.396,44.635,23.701c18.135-1.688,29.791-14.262,33.522-30.666
		c0.155-0.679,0.357-1.348,0.557-2.092c5.974,0,11.905,0,18.046,0c-3.071,16.021-9.823,29.682-23.785,38.875
		c-12.229,8.054-25.924,10.105-40.221,9.232c-10.548-0.643-20.484-3.413-29.44-9.186c-12.009-7.737-19.779-18.787-23.888-32.251
		c-7.183-23.538-6.813-46.874,4.441-69.159c9.843-19.494,26.216-30.115,47.889-32.417c13.429-1.426,26.451,0.179,38.554,6.54
		c13.989,7.351,22.271,19.045,25.494,34.425C253.834,70.232,253.831,70.802,253.9,71.553z"/>
	<path fill="#BB252F" d="M253.181,168.575c2.178-5.494,4.206-10.608,6.232-15.724c14.849-37.468,29.689-74.938,44.551-112.4
		c2.833-7.138,8.644-10.838,15.946-9.956c6.069,0.734,9.932,4.44,12.136,9.978c5.753,14.451,11.481,28.914,17.208,43.376
		c10.857,27.414,21.706,54.828,32.556,82.243c0.279,0.709,0.532,1.426,0.924,2.484c-3.073,0-5.872,0-8.669,0
		c-2.905,0-5.813-0.083-8.712,0.034c-1.518,0.06-2.188-0.469-2.732-1.898c-12.247-31.952-24.554-63.883-36.846-95.817
		c-1.321-3.431-2.663-6.856-3.938-10.305c-0.686-1.859-1.691-3.377-3.86-3.369c-2.173,0.008-3.121,1.567-3.828,3.409
		c-11.864,30.889-23.754,61.771-35.637,92.653c-1.726,4.487-3.496,8.958-5.145,13.473c-0.479,1.319-1.082,1.881-2.571,1.855
		C265.067,168.52,259.339,168.575,253.181,168.575z"/>
</g>
</svg>
