<?xml version="1.0" encoding="utf-8"?>
<!-- Generator: Adobe Illustrator 16.0.0, SVG Export Plug-In . SVG Version: 6.00 Build 0)  -->
<!DOCTYPE svg PUBLIC "-//W3C//DTD SVG 1.1//EN" "http://www.w3.org/Graphics/SVG/1.1/DTD/svg11.dtd">
<svg version="1.1" id="Layer_1" xmlns="http://www.w3.org/2000/svg" xmlns:xlink="http://www.w3.org/1999/xlink" x="0px" y="0px"
	 width="205.498px" height="150px" viewBox="-65.249 -40 205.498 150" enable-background="new -65.249 -40 205.498 150"
	 xml:space="preserve">
<g>
	<path fill="#DBDBDB" d="M91.922,41.036c-9.34-3.3-28.116-8.426-54.867-8.426c-39.339,0-60.676,11.125-60.676,11.125v61.26
		c0,0,29.565-11.127,61.023-11.172l0,0c20.274,0.053,39.922,4.666,51.261,7.928c6.194,1.85,9.947,3.249,9.947,3.249v-0.036V43.74
		v-0.005C98.61,43.729,96.305,42.563,91.922,41.036z"/>
	<path fill="#DBDBDB" d="M-25.674,40.741c0,0,22.755-11.878,64.758-11.878c28.529,0,48.592,5.478,58.522,8.986
		c4.692,1.657,7.159,2.859,7.159,2.859v0.032v8.668l35.483-21.647L37.492-35L-65.249,27.762l39.578,24.147L-25.674,40.741
		L-25.674,40.741z"/>
	<path fill="#C1C1C1" d="M121.628,93.515c-1.344-1.931-1.675-6.183-2.439-17.633c-0.151-1.687-0.714-3.194-1.514-4.114v-3.454
		c0.868-0.898,1.429-2.44,1.429-4.207c0-2.134-0.826-3.921-2.01-4.653V14.17c0-1.017-0.498-1.817-1.133-1.817
		c-0.634,0-1.128,0.8-1.128,1.817V59.44c-1.193,0.724-2.032,2.517-2.032,4.672c0,1.758,0.567,3.306,1.443,4.201v3.479
		c-0.783,0.911-1.358,2.416-1.513,4.094c-0.757,11.451-1.077,15.711-2.43,17.636c-0.453,2.64,2.053,5.698,5.624,5.723
		c0.009-0.014,0.035,0,0.052-0.014c0.016,0,0.021,0.014,0.031,0.014C119.573,99.202,122.082,96.15,121.628,93.515z"/>
</g>
</svg>
