<?xml version="1.0" encoding="utf-8"?>
<!-- Generator: Adobe Illustrator 16.0.0, SVG Export Plug-In . SVG Version: 6.00 Build 0)  -->
<!DOCTYPE svg PUBLIC "-//W3C//DTD SVG 1.1//EN" "http://www.w3.org/Graphics/SVG/1.1/DTD/svg11.dtd">
<svg version="1.1" id="Layer_1" xmlns="http://www.w3.org/2000/svg" xmlns:xlink="http://www.w3.org/1999/xlink" x="0px" y="0px"
	 width="150px" height="150px" viewBox="-40 -40 150 150" enable-background="new -40 -40 150 150" xml:space="preserve">
<g>
	<polygon fill="#DBDBDB" points="-35.942,-40 106.427,-40 106.427,-23.19 -35.942,-23.19 	"/>
	<polygon fill="#DBDBDB" points="105.972,110 -36.428,110 -36.428,93.21 -26.023,93.21 95.551,93.21 105.972,93.21 	"/>
	<path fill="#DBDBDB" d="M91.354-14.908C82.977,9.704,49.397,20.563,45.15,32.529c-0.621,1.586-0.635,4.348-0.086,5.98
		c4.021,11.789,36.822,22.498,45.877,46.39h4.619v3.524c-40.508,0-81.053,0-121.577,0v-3.524h3.679
		c8.892-23.488,40.816-34.24,45.642-45.834c0.906-2.171,0.823-5.277-0.174-7.397C17.621,20.061-14.578,9.114-22.754-14.908h-2.783
		v-4.081h1.669H92.477h3.539v4.081H91.354L91.354-14.908z M-10.065,84.899c8.319-12.805,28.036-15.961,44.59-21.703
		c19.431,11.369,36.483,7.23,44.442,21.703h4.602l-0.53-0.998c-0.761-1.551-1.685-2.981-2.698-4.442
		c-1.634-2.292-3.493-4.395-5.474-6.399c-6.104-6.056-13.346-10.911-20.336-15.941C48.707,53,40.956,47.505,38.607,40.588
		c-1.044-3.021-0.979-7.278,0.064-10.278c0.137-0.36,0.281-0.749,0.49-1.097c-1.771,1.557-3.043,3.057-3.702,4.656
		c-0.858,2.12-1.44,7.318-1.522,22.697c-0.954-2.846,0.291-20.476-0.837-22.588c-0.958-1.76-2.161-3.33-3.693-4.843
		c1.684,3.763,1.769,8.625,0.206,12.42c-2.711,6.529-10.329,11.861-16.012,15.929C6.755,62.364-0.302,67.154-6.275,73.06
		c-3.248,3.267-6.144,6.832-8.199,10.844l-0.33,1h4.739V84.899z M-15.684-14.908c3.395,6.13,6.032,9.897,11.324,14.8l32.657-1.3
		h14.25L73.05-0.18c4.267-3.998,9.062-9.057,10.631-14.728H-15.684L-15.684-14.908z"/>
</g>
</svg>
