<?xml version="1.0" encoding="utf-8"?>
<!-- Generator: Adobe Illustrator 16.0.0, SVG Export Plug-In . SVG Version: 6.00 Build 0)  -->
<!DOCTYPE svg PUBLIC "-//W3C//DTD SVG 1.1//EN" "http://www.w3.org/Graphics/SVG/1.1/DTD/svg11.dtd">
<svg version="1.1" id="Layer_1" xmlns="http://www.w3.org/2000/svg" xmlns:xlink="http://www.w3.org/1999/xlink" x="0px" y="0px"
	 width="150px" height="150px" viewBox="-40 -40 150 150" enable-background="new -40 -40 150 150" xml:space="preserve">
<path fill="#DBDBDB" d="M76.154-37.645c0.031-0.8,0.105-1.604,0.105-2.355H-6.266c0,0.747,0.055,1.556,0.106,2.355h-27.463
	c0,0,10.374,50.915,48.226,50.915c0.176,0,0.379-0.014,0.585-0.031c2.174,2.395,4.445,4.527,6.82,6.21
	c-1.674,0.042-3.022,1.381-3.022,3.056c0,1.692,1.383,3.062,3.071,3.062h4.039l-9.248,38.932H9.981v36.856h52.21V64.498h-6.906
	l-9.252-38.932h4.082c1.662,0,3.036-1.366,3.036-3.062c0-1.697-1.37-3.067-3.036-3.067h-2.107c2.382-1.681,4.644-3.805,6.801-6.194
	c0.181,0.018,0.405,0.03,0.582,0.03c37.863,0,48.233-50.915,48.233-50.915L76.154-37.645L76.154-37.645z M-26.448-32.166h20.88
	C-3.659-19.887,2.249-4.212,10.551,7.473C-11.886,4.76-22.562-20.05-26.448-32.166z M54.809,69.553v25.632H16.763V69.553H54.809z
	 M59.425,7.473c8.303-11.683,14.206-27.355,16.15-39.639h20.855C92.538-20.046,81.876,4.762,59.425,7.473z"/>
<path fill="#DBDBDB" d="M9.976,64.493v36.859H34.68v-6.168H16.763V69.553c0,0,8.99,0,17.917,0V-40H-6.266
	c0,0.747,0.055,1.556,0.106,2.355h-27.463c0,0,10.374,50.915,48.226,50.915c0.176,0,0.379-0.014,0.585-0.031
	c2.174,2.395,4.445,4.527,6.82,6.21c-1.674,0.042-3.022,1.381-3.022,3.056c0,1.692,1.383,3.062,3.071,3.062h4.039l-9.248,38.932
	L9.976,64.493L9.976,64.493L9.976,64.493z M-26.448-32.166h20.88C-3.659-19.887,2.249-4.212,10.551,7.473
	C-11.886,4.76-22.562-20.05-26.448-32.166z"/>
<path fill="#D6D6D6" d="M13.555-40c-0.388,10.911,0.553,19.715,4.938,31.944c6.656,18.608,13.496,25.45,13.496,29.936
	c0,11.366-3.835,40.874-4.65,47.678h7.337V-40H13.555z"/>
<rect x="0.561" y="100.96" fill="#DBDBDB" width="68.881" height="9.04"/>
<rect x="0.561" y="100.96" fill="#C4C4C4" width="34.06" height="9.04"/>
<rect x="16.392" y="69.553" fill="#C4C4C4" width="38.417" height="25.632"/>
</svg>
