<?xml version="1.0" encoding="utf-8"?>
<!-- Generator: Adobe Illustrator 16.0.0, SVG Export Plug-In . SVG Version: 6.00 Build 0)  -->
<!DOCTYPE svg PUBLIC "-//W3C//DTD SVG 1.1//EN" "http://www.w3.org/Graphics/SVG/1.1/DTD/svg11.dtd">
<svg version="1.1" id="Layer_1" xmlns="http://www.w3.org/2000/svg" xmlns:xlink="http://www.w3.org/1999/xlink" x="0px" y="0px"
	 width="155px" height="150px" viewBox="-42.5 -40 155 150" enable-background="new -42.5 -40 155 150" xml:space="preserve">
<path fill="#DBDBDB" d="M98.086,32.569V29.7h8.328v-9.02H110L72.521-8.762L35.017-38.183L-2.498-8.762L-40,20.68h3.561v9.02h8.341
	v2.869v6.155h1.834l-2.014,36.646h-2.601v8.545v2.139h-5.56v22.131h34.541h73.815h34.498V86.055h-5.556v-2.139v-8.547h-2.558
	l-1.993-36.641h1.786v-6.16H98.086z M43.337,32.569v6.155h1.847l-2.051,36.646h-2.584v8.545v2.141H29.455v-2.141v-8.545H26.85
	l-1.991-36.646h1.823v-6.155V29.7h16.656v2.869H43.337z M-6.275,86.055v-2.139v-8.547h-2.581l-2.015-36.646h1.815v-6.159V29.7H7.625
	v2.865v6.159h1.797L7.426,75.369H4.853v8.545v2.139L-6.275,86.055L-6.275,86.055z M78.874,75.369h-2.618v8.547v2.139H65.16v-2.139
	v-8.547h-2.577L60.56,38.729h1.821v-6.16V29.7h16.635v2.869v6.16h1.875L78.874,75.369z"/>
<rect x="-28.099" y="29.7" fill="#E2E2E2" width="19.042" height="9.029"/>
<rect x="-30.879" y="74.319" fill="#E2E2E2" width="24.608" height="11.538"/>
<rect x="4.859" y="74.319" fill="#E2E2E2" width="24.608" height="11.538"/>
<rect x="40.605" y="74.319" fill="#E2E2E2" width="24.605" height="11.538"/>
<rect x="76.153" y="74.319" fill="#E2E2E2" width="24.616" height="11.538"/>
<rect x="7.645" y="29.7" fill="#E2E2E2" width="19.044" height="9.029"/>
<rect x="43.384" y="29.7" fill="#E2E2E2" width="19.049" height="9.029"/>
<rect x="78.934" y="29.7" fill="#E2E2E2" width="19.045" height="9.029"/>
</svg>
