<?xml version="1.0" encoding="utf-8"?>
<!-- Generator: Adobe Illustrator 16.0.0, SVG Export Plug-In . SVG Version: 6.00 Build 0)  -->
<!DOCTYPE svg PUBLIC "-//W3C//DTD SVG 1.1//EN" "http://www.w3.org/Graphics/SVG/1.1/DTD/svg11.dtd">
<svg version="1.1" id="Layer_1" xmlns="http://www.w3.org/2000/svg" xmlns:xlink="http://www.w3.org/1999/xlink" x="0px" y="0px"
	 width="159.75px" height="60px" viewBox="19.75 17.583 159.75 60" enable-background="new 19.75 17.583 159.75 60"
	 xml:space="preserve">
<g>
	<path fill="#333333" d="M100.761,66.476V34.184h-6.532l-4.237-4.321h27.655v4.321h-12.064v32.292H100.761z"/>
	<path fill="#333333" d="M120.648,66.476V29.863h26.354v4.321h-21.531v11.215h20.174v4.292h-20.174v12.472h22.389v4.313H120.648
		L120.648,66.476z"/>
	<path fill="#333333" d="M152.275,66.476V29.863h4.824v32.3h17.955v4.313H152.275L152.275,66.476z"/>
</g>
<path fill="#FF9248" d="M53.128,50.552c2.784-19.379,19.282-19.13,19.282-19.13l-0.006,0.016c1.438-0.095,2.907-0.019,4.385,0.282
	c8.723,1.816,14.328,10.387,12.528,19.148C87.51,59.634,78.985,65.261,70.26,63.459c-2.694-0.559-6.087-2.533-8.061-4.192
	l-2.697,3.488c2.671,2.491,6.01,4.329,9.844,5.131c11.157,2.314,22.066-4.896,24.375-16.098c2.3-11.208-4.873-22.17-16.028-24.484
	c-11.154-2.319-21.51,4.01-23.817,15.215C53.379,44.944,53.06,47.793,53.128,50.552z"/>
<path fill="#333333" d="M63.707,40.961c2.155,15.171-5.837,19.173-6.463,19.506c0,0-2.353,3.194-11.672,3.359
	c-8.911,0-16.127-7.248-16.127-16.202c0-8.947,7.216-16.203,16.127-16.203c2.75,0,5.342,0.7,7.61,1.92l3.058-3.42
	c-3.113-1.898-6.76-3.015-10.668-3.015c-11.394,0.001-20.627,9.277-20.627,20.717c0,11.449,9.233,20.713,20.627,20.713
	c11.387,0,19.02-6.534,19.625-17.235C65.335,48.631,64.347,43.756,63.707,40.961z"/>
</svg>
