<?xml version="1.0" encoding="utf-8"?>
<!-- Generator: Adobe Illustrator 16.0.0, SVG Export Plug-In . SVG Version: 6.00 Build 0)  -->
<!DOCTYPE svg PUBLIC "-//W3C//DTD SVG 1.1//EN" "http://www.w3.org/Graphics/SVG/1.1/DTD/svg11.dtd">
<svg version="1.1" id="Layer_1" xmlns="http://www.w3.org/2000/svg" xmlns:xlink="http://www.w3.org/1999/xlink" x="0px" y="0px"
	 width="143px" height="45.333px" viewBox="0 0 143 45.333" enable-background="new 0 0 143 45.333" xml:space="preserve">
<g>
	<path fill="#121212" d="M72.023,31.109V10.121h-4.482l-2.907-2.813h18.979v2.813h-8.281v20.988H72.023z"/>
	<path fill="#121212" d="M85.667,31.109V7.308h18.079v2.813H88.974v7.286h13.849v2.795H88.974v8.105h15.368v2.802H85.667z"/>
	<path fill="#121212" d="M107.365,31.109V7.308h3.313v21H123v2.802H107.365z"/>
</g>
<path fill="#F37D21" d="M39.338,20.762C41.249,8.165,52.567,8.324,52.567,8.324l-0.002,0.011c0.988-0.069,1.997-0.018,3.011,0.182
	c5.986,1.177,9.829,6.752,8.596,12.448c-1.244,5.703-7.09,9.357-13.076,8.179c-1.851-0.358-4.177-1.642-5.531-2.721l-1.853,2.275
	c1.833,1.615,4.124,2.81,6.754,3.332c7.656,1.496,15.141-3.19,16.728-10.469c1.576-7.291-3.345-14.415-11.001-15.92
	c-7.652-1.503-14.756,2.612-16.342,9.897C39.51,17.112,39.289,18.965,39.338,20.762z"/>
<path fill="#121212" d="M46.596,14.524c1.481,9.864-4.004,12.462-4.436,12.682c0,0-1.615,2.083-8.005,2.191
	c-6.118,0-11.066-4.725-11.066-10.54c0-5.812,4.948-10.534,11.066-10.534c1.884,0,3.665,0.456,5.221,1.253l2.097-2.232
	c-2.136-1.228-4.64-1.96-7.318-1.96C26.335,5.385,20,11.421,20,18.857c0,7.444,6.334,13.476,14.155,13.476
	c7.81,0,13.048-4.264,13.465-11.217C47.714,19.508,47.034,16.343,46.596,14.524z"/>
<g>
	<path fill="#FFFFFF" d="M5.084,36.501c-0.184,0-0.339-0.061-0.468-0.182s-0.192-0.285-0.192-0.49s0.064-0.369,0.192-0.488
		C4.745,35.22,4.9,35.16,5.084,35.16c0.183,0,0.339,0.061,0.467,0.182c0.128,0.119,0.192,0.283,0.192,0.488s-0.064,0.369-0.192,0.49
		S5.267,36.501,5.084,36.501z M5.601,43.255H4.578v-5.721h1.023V43.255z"/>
	<path fill="#FFFFFF" d="M7.36,37.701c0.235-0.059,0.546-0.121,0.935-0.188s0.836-0.1,1.342-0.1c0.455,0,0.832,0.064,1.133,0.193
		c0.301,0.127,0.541,0.307,0.721,0.539c0.179,0.23,0.306,0.508,0.379,0.83c0.073,0.322,0.11,0.678,0.11,1.066v3.213h-1.023v-2.992
		c0-0.352-0.024-0.652-0.072-0.902c-0.047-0.25-0.126-0.451-0.236-0.605s-0.257-0.266-0.44-0.336
		c-0.184-0.068-0.411-0.104-0.682-0.104c-0.11,0-0.224,0.004-0.341,0.012c-0.118,0.006-0.229,0.016-0.335,0.027
		c-0.106,0.01-0.202,0.023-0.286,0.037c-0.084,0.016-0.145,0.027-0.182,0.033v4.83H7.36V37.701z"/>
	<path fill="#FFFFFF" d="M15.005,42.517c0.418,0,0.728-0.055,0.93-0.164c0.202-0.109,0.302-0.287,0.302-0.527
		c0-0.25-0.099-0.447-0.297-0.596c-0.198-0.146-0.524-0.311-0.979-0.494c-0.22-0.088-0.431-0.178-0.632-0.27
		c-0.202-0.092-0.376-0.199-0.522-0.324c-0.147-0.125-0.264-0.275-0.352-0.451c-0.088-0.176-0.132-0.393-0.132-0.648
		c0-0.506,0.187-0.908,0.561-1.205s0.884-0.445,1.529-0.445c0.161,0,0.322,0.01,0.484,0.027c0.161,0.018,0.312,0.041,0.451,0.066
		c0.139,0.025,0.262,0.053,0.368,0.082s0.189,0.055,0.248,0.076l-0.187,0.881c-0.11-0.059-0.282-0.119-0.517-0.182
		s-0.517-0.094-0.847-0.094c-0.286,0-0.536,0.057-0.748,0.17c-0.213,0.115-0.319,0.293-0.319,0.535c0,0.125,0.024,0.234,0.072,0.33
		c0.047,0.094,0.121,0.182,0.22,0.258c0.099,0.076,0.222,0.148,0.369,0.215s0.323,0.135,0.528,0.209
		c0.271,0.102,0.514,0.203,0.726,0.303c0.213,0.098,0.394,0.213,0.544,0.346s0.266,0.291,0.347,0.479s0.121,0.416,0.121,0.688
		c0,0.527-0.196,0.928-0.588,1.199c-0.393,0.271-0.952,0.406-1.678,0.406c-0.506,0-0.902-0.041-1.188-0.125
		c-0.286-0.086-0.48-0.148-0.583-0.193l0.187-0.881c0.117,0.045,0.304,0.111,0.561,0.199S14.58,42.517,15.005,42.517z"/>
	<path fill="#FFFFFF" d="M23.619,40.406c0,0.434-0.057,0.832-0.17,1.199s-0.281,0.682-0.5,0.945c-0.22,0.264-0.49,0.471-0.809,0.617
		s-0.684,0.219-1.094,0.219c-0.33,0-0.622-0.043-0.875-0.131c-0.253-0.088-0.442-0.172-0.567-0.254v2.289h-1.023v-7.58
		c0.242-0.059,0.544-0.123,0.908-0.191c0.363-0.07,0.783-0.105,1.259-0.105c0.44,0,0.836,0.07,1.188,0.209
		c0.352,0.141,0.653,0.338,0.902,0.594c0.249,0.258,0.441,0.57,0.577,0.941C23.551,39.527,23.619,39.945,23.619,40.406z
		 M22.552,40.406c0-0.668-0.165-1.18-0.495-1.539s-0.77-0.539-1.32-0.539c-0.308,0-0.548,0.01-0.721,0.033
		c-0.172,0.021-0.31,0.047-0.413,0.076v3.607c0.125,0.104,0.304,0.203,0.539,0.297c0.235,0.096,0.491,0.145,0.77,0.145
		c0.293,0,0.544-0.055,0.753-0.16c0.209-0.107,0.38-0.254,0.512-0.439c0.132-0.188,0.227-0.408,0.286-0.66
		C22.522,40.972,22.552,40.699,22.552,40.406z"/>
	<path fill="#FFFFFF" d="M25.565,36.501c-0.184,0-0.339-0.061-0.468-0.182s-0.192-0.285-0.192-0.49s0.064-0.369,0.192-0.488
		c0.128-0.121,0.284-0.182,0.468-0.182c0.183,0,0.339,0.061,0.467,0.182c0.128,0.119,0.192,0.283,0.192,0.488
		s-0.064,0.369-0.192,0.49S25.749,36.501,25.565,36.501z M26.082,43.255h-1.023v-5.721h1.023V43.255z"/>
	<path fill="#FFFFFF" d="M29.955,37.414c0.088,0,0.188,0.006,0.302,0.018c0.114,0.01,0.226,0.025,0.335,0.043
		c0.11,0.02,0.211,0.037,0.303,0.055c0.091,0.02,0.159,0.035,0.204,0.051l-0.176,0.891c-0.081-0.029-0.214-0.064-0.401-0.105
		c-0.187-0.039-0.427-0.061-0.721-0.061c-0.19,0-0.379,0.021-0.566,0.061c-0.187,0.041-0.31,0.068-0.369,0.084v4.807h-1.023v-5.479
		c0.242-0.088,0.543-0.17,0.902-0.248C29.104,37.453,29.507,37.414,29.955,37.414z"/>
	<path fill="#FFFFFF" d="M31.769,40.406c0-0.506,0.073-0.947,0.22-1.326c0.147-0.377,0.341-0.689,0.583-0.939
		c0.242-0.25,0.521-0.436,0.836-0.561c0.315-0.125,0.638-0.188,0.968-0.188c0.77,0,1.36,0.24,1.771,0.721s0.616,1.211,0.616,2.193
		c0,0.045,0,0.102,0,0.172c0,0.068-0.004,0.133-0.011,0.191h-3.916c0.044,0.594,0.216,1.045,0.517,1.354s0.77,0.463,1.408,0.463
		c0.359,0,0.662-0.031,0.907-0.094s0.431-0.123,0.556-0.182l0.143,0.857c-0.125,0.066-0.343,0.137-0.655,0.209
		c-0.312,0.074-0.666,0.109-1.062,0.109c-0.499,0-0.929-0.074-1.292-0.225c-0.363-0.15-0.662-0.357-0.896-0.621
		s-0.409-0.578-0.522-0.941S31.769,40.839,31.769,40.406z M35.696,39.845c0.007-0.463-0.108-0.842-0.346-1.139
		s-0.566-0.445-0.984-0.445c-0.235,0-0.442,0.045-0.622,0.137s-0.332,0.211-0.457,0.357c-0.125,0.146-0.222,0.316-0.292,0.506
		c-0.07,0.191-0.116,0.385-0.138,0.584H35.696z"/>
	<path fill="#FFFFFF" d="M41.735,37.535h2.167v0.857h-2.167v2.641c0,0.287,0.022,0.523,0.066,0.709
		c0.044,0.188,0.11,0.334,0.198,0.441c0.088,0.105,0.198,0.182,0.33,0.225c0.132,0.045,0.286,0.066,0.462,0.066
		c0.308,0,0.556-0.035,0.743-0.105c0.187-0.068,0.317-0.119,0.39-0.148l0.198,0.848c-0.103,0.051-0.283,0.115-0.539,0.193
		c-0.257,0.076-0.55,0.115-0.88,0.115c-0.389,0-0.709-0.051-0.963-0.148c-0.253-0.1-0.456-0.248-0.61-0.445
		c-0.154-0.199-0.262-0.443-0.324-0.732c-0.063-0.289-0.094-0.625-0.094-1.006v-5.105l1.023-0.176V37.535z"/>
	<path fill="#FFFFFF" d="M45.2,43.255v-8.361l1.023-0.176v2.926c0.191-0.072,0.394-0.129,0.611-0.17
		c0.216-0.039,0.431-0.061,0.644-0.061c0.455,0,0.832,0.064,1.133,0.193c0.301,0.127,0.541,0.307,0.721,0.539
		c0.179,0.23,0.306,0.508,0.379,0.83c0.073,0.322,0.11,0.678,0.11,1.066v3.213h-1.023v-2.992c0-0.352-0.024-0.652-0.072-0.902
		c-0.047-0.25-0.126-0.451-0.236-0.605s-0.257-0.266-0.44-0.336c-0.184-0.068-0.411-0.104-0.682-0.104
		c-0.11,0-0.224,0.008-0.341,0.021c-0.118,0.016-0.229,0.031-0.335,0.051c-0.106,0.018-0.202,0.037-0.286,0.061
		c-0.084,0.021-0.145,0.039-0.182,0.055v4.752H45.2z"/>
	<path fill="#FFFFFF" d="M51.162,40.406c0-0.506,0.073-0.947,0.22-1.326c0.147-0.377,0.341-0.689,0.583-0.939
		c0.242-0.25,0.521-0.436,0.836-0.561c0.315-0.125,0.638-0.188,0.968-0.188c0.77,0,1.36,0.24,1.771,0.721s0.616,1.211,0.616,2.193
		c0,0.045,0,0.102,0,0.172c0,0.068-0.004,0.133-0.011,0.191h-3.916c0.044,0.594,0.216,1.045,0.517,1.354s0.77,0.463,1.408,0.463
		c0.359,0,0.662-0.031,0.907-0.094s0.431-0.123,0.556-0.182l0.143,0.857c-0.125,0.066-0.343,0.137-0.655,0.209
		c-0.312,0.074-0.666,0.109-1.062,0.109c-0.499,0-0.929-0.074-1.292-0.225c-0.363-0.15-0.662-0.357-0.896-0.621
		s-0.409-0.578-0.522-0.941S51.162,40.839,51.162,40.406z M55.088,39.845c0.007-0.463-0.108-0.842-0.346-1.139
		s-0.566-0.445-0.984-0.445c-0.235,0-0.442,0.045-0.622,0.137s-0.332,0.211-0.457,0.357c-0.125,0.146-0.222,0.316-0.292,0.506
		c-0.07,0.191-0.116,0.385-0.138,0.584H55.088z"/>
	<path fill="#FFFFFF" d="M60.17,37.701c0.235-0.059,0.546-0.121,0.935-0.188s0.836-0.1,1.342-0.1c0.455,0,0.832,0.064,1.133,0.193
		c0.301,0.127,0.541,0.307,0.721,0.539c0.179,0.23,0.306,0.508,0.379,0.83c0.073,0.322,0.11,0.678,0.11,1.066v3.213h-1.023v-2.992
		c0-0.352-0.024-0.652-0.072-0.902c-0.047-0.25-0.126-0.451-0.236-0.605s-0.257-0.266-0.44-0.336
		c-0.184-0.068-0.411-0.104-0.682-0.104c-0.11,0-0.224,0.004-0.341,0.012c-0.118,0.006-0.229,0.016-0.335,0.027
		c-0.106,0.01-0.202,0.023-0.286,0.037c-0.084,0.016-0.145,0.027-0.182,0.033v4.83H60.17V37.701z"/>
	<path fill="#FFFFFF" d="M66.166,40.406c0-0.506,0.073-0.947,0.22-1.326c0.146-0.377,0.341-0.689,0.583-0.939
		s0.521-0.436,0.836-0.561s0.638-0.188,0.968-0.188c0.771,0,1.36,0.24,1.771,0.721c0.41,0.48,0.615,1.211,0.615,2.193
		c0,0.045,0,0.102,0,0.172c0,0.068-0.004,0.133-0.011,0.191h-3.916c0.044,0.594,0.216,1.045,0.517,1.354s0.771,0.463,1.408,0.463
		c0.359,0,0.662-0.031,0.908-0.094c0.245-0.063,0.431-0.123,0.555-0.182l0.144,0.857c-0.125,0.066-0.343,0.137-0.654,0.209
		c-0.313,0.074-0.666,0.109-1.062,0.109c-0.499,0-0.93-0.074-1.293-0.225s-0.662-0.357-0.896-0.621s-0.408-0.578-0.522-0.941
		C66.222,41.236,66.166,40.839,66.166,40.406z M70.093,39.845c0.007-0.463-0.108-0.842-0.347-1.139s-0.566-0.445-0.984-0.445
		c-0.235,0-0.442,0.045-0.622,0.137s-0.332,0.211-0.456,0.357c-0.125,0.146-0.222,0.316-0.292,0.506
		c-0.069,0.191-0.115,0.385-0.137,0.584H70.093z"/>
	<path fill="#FFFFFF" d="M76.054,43.255c-0.08-0.162-0.18-0.342-0.297-0.539c-0.117-0.199-0.246-0.402-0.385-0.611
		c-0.14-0.209-0.282-0.416-0.429-0.621c-0.147-0.205-0.29-0.4-0.43-0.582c-0.139,0.182-0.282,0.379-0.429,0.588
		s-0.288,0.418-0.424,0.627s-0.262,0.412-0.379,0.609c-0.118,0.199-0.217,0.375-0.297,0.529h-1.057
		c0.257-0.5,0.563-1.008,0.919-1.523c0.355-0.518,0.709-1.01,1.062-1.48l-1.893-2.717h1.155l1.364,2.002l1.375-2.002H77l-1.848,2.65
		c0.352,0.479,0.713,0.982,1.083,1.514s0.684,1.051,0.94,1.557H76.054z"/>
	<path fill="#FFFFFF" d="M79.211,37.535h2.167v0.857h-2.167v2.641c0,0.287,0.022,0.523,0.066,0.709
		c0.044,0.188,0.109,0.334,0.197,0.441c0.089,0.105,0.198,0.182,0.33,0.225c0.133,0.045,0.286,0.066,0.462,0.066
		c0.309,0,0.556-0.035,0.743-0.105c0.187-0.068,0.316-0.119,0.391-0.148l0.197,0.848c-0.103,0.051-0.282,0.115-0.539,0.193
		c-0.257,0.076-0.55,0.115-0.88,0.115c-0.389,0-0.709-0.051-0.962-0.148c-0.253-0.1-0.457-0.248-0.61-0.445
		c-0.154-0.199-0.263-0.443-0.325-0.732s-0.093-0.625-0.093-1.006v-5.105l1.022-0.176V37.535z"/>
	<path fill="#FFFFFF" d="M88.803,42.683c-0.088,0.059-0.259,0.133-0.512,0.225s-0.548,0.139-0.885,0.139
		c-0.345,0-0.67-0.055-0.974-0.166c-0.305-0.109-0.57-0.279-0.798-0.512c-0.228-0.23-0.407-0.518-0.539-0.863
		c-0.132-0.344-0.198-0.754-0.198-1.232c0-0.418,0.063-0.801,0.188-1.148s0.306-0.648,0.545-0.902
		c0.237-0.252,0.529-0.451,0.874-0.594s0.733-0.215,1.166-0.215c0.477,0,0.893,0.035,1.248,0.105
		c0.356,0.068,0.655,0.133,0.896,0.191v5.104c0,0.881-0.227,1.52-0.682,1.914c-0.455,0.396-1.144,0.596-2.068,0.596
		c-0.359,0-0.698-0.029-1.017-0.088c-0.319-0.061-0.597-0.129-0.831-0.209l0.188-0.893c0.205,0.082,0.456,0.152,0.753,0.215
		s0.606,0.094,0.93,0.094c0.608,0,1.047-0.121,1.314-0.363s0.401-0.627,0.401-1.154V42.683z M88.792,38.437
		c-0.103-0.029-0.24-0.057-0.412-0.082c-0.173-0.025-0.405-0.039-0.699-0.039c-0.55,0-0.974,0.18-1.271,0.539
		s-0.445,0.836-0.445,1.43c0,0.33,0.042,0.613,0.127,0.848c0.084,0.234,0.197,0.428,0.341,0.582
		c0.143,0.154,0.308,0.268,0.495,0.342c0.187,0.072,0.379,0.109,0.577,0.109c0.271,0,0.521-0.039,0.748-0.115
		s0.407-0.166,0.539-0.27V38.437z"/>
	<path fill="#FFFFFF" d="M91.256,40.406c0-0.506,0.073-0.947,0.221-1.326c0.146-0.377,0.341-0.689,0.583-0.939
		s0.521-0.436,0.836-0.561s0.638-0.188,0.968-0.188c0.771,0,1.36,0.24,1.771,0.721c0.41,0.48,0.615,1.211,0.615,2.193
		c0,0.045,0,0.102,0,0.172c0,0.068-0.004,0.133-0.011,0.191h-3.916c0.044,0.594,0.216,1.045,0.517,1.354s0.771,0.463,1.408,0.463
		c0.359,0,0.662-0.031,0.908-0.094c0.245-0.063,0.431-0.123,0.555-0.182l0.144,0.857c-0.125,0.066-0.343,0.137-0.654,0.209
		c-0.313,0.074-0.666,0.109-1.062,0.109c-0.499,0-0.93-0.074-1.293-0.225s-0.662-0.357-0.896-0.621s-0.409-0.578-0.522-0.941
		S91.256,40.839,91.256,40.406z M95.184,39.845c0.007-0.463-0.108-0.842-0.347-1.139s-0.566-0.445-0.984-0.445
		c-0.235,0-0.442,0.045-0.622,0.137s-0.332,0.211-0.456,0.357c-0.125,0.146-0.222,0.316-0.292,0.506
		c-0.069,0.191-0.115,0.385-0.137,0.584H95.184z"/>
	<path fill="#FFFFFF" d="M97.724,37.701c0.234-0.059,0.546-0.121,0.936-0.188c0.388-0.066,0.836-0.1,1.342-0.1
		c0.454,0,0.832,0.064,1.133,0.193c0.301,0.127,0.541,0.307,0.721,0.539c0.18,0.23,0.306,0.508,0.379,0.83s0.11,0.678,0.11,1.066
		v3.213h-1.023v-2.992c0-0.352-0.023-0.652-0.071-0.902s-0.126-0.451-0.236-0.605s-0.257-0.266-0.44-0.336
		c-0.183-0.068-0.41-0.104-0.682-0.104c-0.11,0-0.224,0.004-0.341,0.012c-0.117,0.006-0.229,0.016-0.336,0.027
		c-0.106,0.01-0.201,0.023-0.285,0.037c-0.085,0.016-0.146,0.027-0.182,0.033v4.83h-1.023V37.701z"/>
	<path fill="#FFFFFF" d="M103.718,40.406c0-0.506,0.073-0.947,0.221-1.326c0.146-0.377,0.341-0.689,0.583-0.939
		s0.521-0.436,0.836-0.561s0.638-0.188,0.968-0.188c0.771,0,1.36,0.24,1.771,0.721c0.41,0.48,0.615,1.211,0.615,2.193
		c0,0.045,0,0.102,0,0.172c0,0.068-0.004,0.133-0.011,0.191h-3.916c0.044,0.594,0.216,1.045,0.517,1.354s0.771,0.463,1.408,0.463
		c0.359,0,0.662-0.031,0.908-0.094c0.245-0.063,0.431-0.123,0.555-0.182l0.144,0.857c-0.125,0.066-0.343,0.137-0.654,0.209
		c-0.313,0.074-0.666,0.109-1.062,0.109c-0.499,0-0.93-0.074-1.293-0.225s-0.662-0.357-0.896-0.621s-0.409-0.578-0.522-0.941
		S103.718,40.839,103.718,40.406z M107.646,39.845c0.007-0.463-0.108-0.842-0.347-1.139s-0.566-0.445-0.984-0.445
		c-0.235,0-0.442,0.045-0.622,0.137s-0.332,0.211-0.456,0.357c-0.125,0.146-0.222,0.316-0.292,0.506
		c-0.069,0.191-0.115,0.385-0.137,0.584H107.646z"/>
	<path fill="#FFFFFF" d="M112.299,37.414c0.088,0,0.188,0.006,0.303,0.018c0.113,0.01,0.225,0.025,0.335,0.043
		c0.11,0.02,0.211,0.037,0.303,0.055c0.092,0.02,0.159,0.035,0.203,0.051l-0.176,0.891c-0.081-0.029-0.215-0.064-0.401-0.105
		c-0.188-0.039-0.428-0.061-0.721-0.061c-0.19,0-0.379,0.021-0.566,0.061c-0.187,0.041-0.31,0.068-0.368,0.084v4.807h-1.023v-5.479
		c0.242-0.088,0.543-0.17,0.902-0.248C111.448,37.453,111.852,37.414,112.299,37.414z"/>
	<path fill="#FFFFFF" d="M116.28,37.392c0.411,0,0.758,0.053,1.04,0.16c0.282,0.105,0.51,0.256,0.682,0.449
		c0.173,0.195,0.295,0.426,0.369,0.693c0.073,0.268,0.109,0.563,0.109,0.887v3.574c-0.088,0.016-0.211,0.035-0.368,0.061
		c-0.158,0.025-0.336,0.049-0.533,0.072c-0.198,0.021-0.413,0.041-0.644,0.061c-0.231,0.018-0.461,0.027-0.688,0.027
		c-0.323,0-0.62-0.033-0.892-0.1s-0.506-0.17-0.704-0.313c-0.197-0.145-0.352-0.332-0.462-0.568
		c-0.109-0.234-0.165-0.516-0.165-0.846c0-0.316,0.064-0.588,0.192-0.814c0.129-0.227,0.303-0.41,0.523-0.551
		c0.22-0.139,0.477-0.24,0.77-0.307s0.602-0.1,0.924-0.1c0.103,0,0.209,0.006,0.319,0.016c0.109,0.012,0.214,0.027,0.313,0.045
		c0.099,0.018,0.185,0.035,0.259,0.049c0.073,0.016,0.124,0.027,0.153,0.033v-0.285c0-0.17-0.019-0.336-0.055-0.5
		c-0.037-0.166-0.103-0.313-0.198-0.441c-0.096-0.127-0.226-0.23-0.391-0.307c-0.165-0.078-0.379-0.117-0.644-0.117
		c-0.337,0-0.632,0.025-0.885,0.072c-0.253,0.049-0.442,0.098-0.566,0.148l-0.121-0.848c0.132-0.059,0.352-0.115,0.659-0.17
		C115.588,37.419,115.921,37.392,116.28,37.392z M116.369,42.517c0.241,0,0.456-0.004,0.644-0.016
		c0.187-0.012,0.342-0.031,0.467-0.061v-1.705c-0.073-0.037-0.192-0.068-0.357-0.094s-0.364-0.039-0.6-0.039
		c-0.153,0-0.317,0.012-0.489,0.033c-0.172,0.023-0.33,0.068-0.473,0.139c-0.144,0.068-0.263,0.164-0.357,0.285
		c-0.096,0.121-0.144,0.281-0.144,0.479c0,0.367,0.117,0.621,0.353,0.766C115.646,42.447,115.966,42.517,116.369,42.517z"/>
	<path fill="#FFFFFF" d="M121.131,37.535h2.167v0.857h-2.167v2.641c0,0.287,0.022,0.523,0.066,0.709
		c0.044,0.188,0.109,0.334,0.197,0.441c0.089,0.105,0.198,0.182,0.33,0.225c0.133,0.045,0.286,0.066,0.462,0.066
		c0.309,0,0.556-0.035,0.743-0.105c0.187-0.068,0.316-0.119,0.391-0.148l0.197,0.848c-0.103,0.051-0.282,0.115-0.539,0.193
		c-0.257,0.076-0.55,0.115-0.88,0.115c-0.389,0-0.709-0.051-0.962-0.148c-0.253-0.1-0.457-0.248-0.61-0.445
		c-0.154-0.199-0.263-0.443-0.325-0.732s-0.093-0.625-0.093-1.006v-5.105l1.022-0.176V37.535z"/>
	<path fill="#FFFFFF" d="M125.102,36.501c-0.184,0-0.339-0.061-0.467-0.182c-0.129-0.121-0.193-0.285-0.193-0.49
		s0.064-0.369,0.193-0.488c0.128-0.121,0.283-0.182,0.467-0.182s0.34,0.061,0.468,0.182c0.128,0.119,0.192,0.283,0.192,0.488
		s-0.064,0.369-0.192,0.49S125.285,36.501,125.102,36.501z M125.619,43.255h-1.023v-5.721h1.023V43.255z"/>
	<path fill="#FFFFFF" d="M132.428,40.394c0,0.455-0.065,0.867-0.197,1.232c-0.133,0.367-0.317,0.682-0.556,0.947
		c-0.238,0.264-0.522,0.467-0.853,0.609s-0.689,0.215-1.078,0.215s-0.748-0.072-1.078-0.215s-0.614-0.346-0.853-0.609
		c-0.238-0.266-0.424-0.58-0.556-0.947c-0.132-0.365-0.198-0.777-0.198-1.232c0-0.447,0.066-0.855,0.198-1.227
		c0.132-0.369,0.317-0.688,0.556-0.951s0.522-0.467,0.853-0.609s0.689-0.215,1.078-0.215s0.748,0.072,1.078,0.215
		s0.614,0.346,0.853,0.609s0.423,0.582,0.556,0.951C132.362,39.539,132.428,39.947,132.428,40.394z M131.361,40.394
		c0-0.645-0.146-1.156-0.435-1.533c-0.29-0.379-0.685-0.566-1.183-0.566c-0.499,0-0.893,0.188-1.183,0.566
		c-0.29,0.377-0.435,0.889-0.435,1.533c0,0.646,0.145,1.158,0.435,1.535c0.29,0.379,0.684,0.566,1.183,0.566
		c0.498,0,0.893-0.188,1.183-0.566C131.216,41.552,131.361,41.041,131.361,40.394z"/>
	<path fill="#FFFFFF" d="M133.869,37.701c0.234-0.059,0.546-0.121,0.936-0.188c0.388-0.066,0.836-0.1,1.342-0.1
		c0.454,0,0.832,0.064,1.133,0.193c0.301,0.127,0.541,0.307,0.721,0.539c0.18,0.23,0.306,0.508,0.379,0.83s0.11,0.678,0.11,1.066
		v3.213h-1.023v-2.992c0-0.352-0.023-0.652-0.071-0.902s-0.126-0.451-0.236-0.605s-0.257-0.266-0.44-0.336
		c-0.183-0.068-0.41-0.104-0.682-0.104c-0.11,0-0.224,0.004-0.341,0.012c-0.117,0.006-0.229,0.016-0.336,0.027
		c-0.106,0.01-0.201,0.023-0.285,0.037c-0.085,0.016-0.146,0.027-0.182,0.033v4.83h-1.023V37.701z"/>
</g>
</svg>
