<?xml version="1.0" encoding="utf-8"?>
<!-- Generator: Adobe Illustrator 16.0.0, SVG Export Plug-In . SVG Version: 6.00 Build 0)  -->
<!DOCTYPE svg PUBLIC "-//W3C//DTD SVG 1.1//EN" "http://www.w3.org/Graphics/SVG/1.1/DTD/svg11.dtd">
<svg version="1.1" id="Layer_1" xmlns="http://www.w3.org/2000/svg" xmlns:xlink="http://www.w3.org/1999/xlink" x="0px" y="0px"
	 width="50px" height="50px" viewBox="0 0 50 50" enable-background="new 0 0 50 50" xml:space="preserve">
<g>
	<path fill="#FFFFFF" d="M46.5,10.21c0,2.558-1.823,4.632-4.063,4.632H7.563c-2.245,0-4.063-2.074-4.063-4.632l0,0
		c0-2.558,1.818-4.631,4.063-4.631h34.874C44.677,5.58,46.5,7.653,46.5,10.21L46.5,10.21z"/>
	<path fill="#FFFFFF" d="M46.5,25.148c0,2.558-1.823,4.631-4.063,4.631H7.563c-2.245,0-4.063-2.073-4.063-4.631l0,0
		c0.001-2.557,1.819-4.631,4.063-4.631h34.874C44.677,20.518,46.5,22.592,46.5,25.148L46.5,25.148z"/>
	<path fill="#FFFFFF" d="M46.5,39.789c0,2.559-1.823,4.632-4.063,4.632H7.563c-2.245,0-4.063-2.073-4.063-4.632l0,0
		c0-2.559,1.818-4.631,4.063-4.631h34.874C44.677,35.158,46.5,37.23,46.5,39.789L46.5,39.789z"/>
</g>
</svg>
