<?xml version="1.0" encoding="utf-8"?>
<!-- Generator: Adobe Illustrator 16.0.0, SVG Export Plug-In . SVG Version: 6.00 Build 0)  -->
<!DOCTYPE svg PUBLIC "-//W3C//DTD SVG 1.1//EN" "http://www.w3.org/Graphics/SVG/1.1/DTD/svg11.dtd">
<svg version="1.1" id="Layer_1" xmlns="http://www.w3.org/2000/svg" xmlns:xlink="http://www.w3.org/1999/xlink" x="0px" y="0px"
	 width="60px" height="60px" viewBox="0 0 60 60" enable-background="new 0 0 60 60" xml:space="preserve">
<g>
	<path fill="#0B71AE" d="M7.329,47.439H3.841c-0.964,0-1.744-0.779-1.744-1.742c0-0.965,0.78-1.744,1.744-1.744h3.488
		c0.963,0,1.743,0.779,1.743,1.744C9.072,46.66,8.292,47.439,7.329,47.439z M57.903,9.072v41.855c0,3.854-3.124,6.977-6.976,6.977
		H12.561c-3.853,0-6.976-3.123-6.976-6.977h1.744c2.884,0,5.231-2.346,5.231-5.23c0-2.887-2.348-5.232-5.231-5.232H5.585V19.537
		h1.744c2.884,0,5.231-2.347,5.231-5.232c0-2.885-2.348-5.232-5.231-5.232H5.585c0-3.853,3.123-6.976,6.976-6.976h38.367
		C54.779,2.096,57.903,5.22,57.903,9.072z M54.416,9.072c0-1.924-1.564-3.488-3.488-3.488H19.536v48.832h31.392
		c1.924,0,3.488-1.566,3.488-3.488V9.072z M3.841,16.049h3.488c0.963,0,1.743-0.78,1.743-1.744s-0.78-1.745-1.743-1.745H3.841
		c-0.964,0-1.744,0.781-1.744,1.745S2.877,16.049,3.841,16.049z M49.184,9.072H24.769c-0.964,0-1.745,0.78-1.745,1.744
		c0,0.964,0.781,1.744,1.745,1.744h24.415c0.964,0,1.744-0.78,1.744-1.744C50.928,9.853,50.147,9.072,49.184,9.072z M49.184,16.049
		H24.769c-0.964,0-1.745,0.78-1.745,1.743c0,0.964,0.781,1.745,1.745,1.745h24.415c0.964,0,1.744-0.78,1.744-1.745
		C50.928,16.829,50.147,16.049,49.184,16.049z M49.184,23.024H24.769c-0.964,0-1.745,0.78-1.745,1.744s0.781,1.743,1.745,1.743
		h24.415c0.964,0,1.744-0.779,1.744-1.743S50.147,23.024,49.184,23.024z M49.184,30H24.769c-0.964,0-1.745,0.78-1.745,1.744
		c0,0.963,0.781,1.744,1.745,1.744h24.415c0.964,0,1.744-0.781,1.744-1.744C50.928,30.781,50.147,30,49.184,30z M49.184,36.976
		H24.769c-0.964,0-1.745,0.78-1.745,1.744s0.781,1.745,1.745,1.745h24.415c0.964,0,1.744-0.781,1.744-1.745
		S50.147,36.976,49.184,36.976z M38.72,43.953H24.769c-0.964,0-1.745,0.779-1.745,1.744c0,0.963,0.781,1.742,1.745,1.742H38.72
		c0.964,0,1.744-0.779,1.744-1.742C40.464,44.732,39.684,43.953,38.72,43.953z"/>
</g>
</svg>
