<?xml version="1.0" encoding="utf-8"?>
<!-- Generator: Adobe Illustrator 16.0.0, SVG Export Plug-In . SVG Version: 6.00 Build 0)  -->
<!DOCTYPE svg PUBLIC "-//W3C//DTD SVG 1.1//EN" "http://www.w3.org/Graphics/SVG/1.1/DTD/svg11.dtd">
<svg version="1.1" id="Layer_1" xmlns="http://www.w3.org/2000/svg" xmlns:xlink="http://www.w3.org/1999/xlink" x="0px" y="0px"
	 width="50px" height="50px" viewBox="0 0 50 50" enable-background="new 0 0 50 50" xml:space="preserve">
<circle fill="#1A1A1A" cx="-41.625" cy="13" r="29.098"/>
<g>
	<path fill="#FFFFFF" d="M-21.459,14.395l-5.725-18.264l-29.19,6.188l1.373,4.541l-6.85,1.81c0,0,3.196,10.193,5.301,16.913
		c2.104,6.719,7.192,3.529,7.192,3.529s22.063-9.282,25.414-10.69C-20.786,17.093-21.459,14.395-21.459,14.395z M-54.236,24.461
		l-4.355-13.896l4.402-1.017l5.36,17.966l1.88-1.142C-52.923,29.575-54.236,24.461-54.236,24.461z M-24.782,16.925
		c0,0-4.193,1.629-9.074,3.632l-3.132-9.988l-10.255,3.205l3.462,11.048c-1.023,0.473-1.941,0.915-2.705,1.31L-51.853,9.01l0,0
		l-1.498-4.782l25.466-5.863c0,0,3.955,12.612,4.733,15.099C-22.372,15.951-24.782,16.925-24.782,16.925z"/>
	<polygon fill="#FFFFFF" points="-26.35,7.838 -34.863,10.543 -34.198,12.67 -25.729,9.815 	"/>
	<polygon fill="#FFFFFF" points="-33.773,14.022 -33.106,16.149 -24.715,13.051 -25.335,11.073 	"/>
	<path fill="#FFFFFF" d="M-45.52,4.524l0.537,1.712c0.28,0.891,0.557,1.678,0.878,2.433l-0.019,0.005
		c-0.483-0.587-1.062-1.229-1.618-1.756l-1.966-1.856l-1.668,0.411l1.898,6.061l1.298-0.383l-0.567-1.808
		c-0.306-0.981-0.591-1.82-0.887-2.61l0.037-0.009c0.515,0.624,1.17,1.286,1.735,1.823l2.009,1.917l1.402-0.415l-1.827-5.832
		L-45.52,4.524z"/>
	<polygon fill="#FFFFFF" points="-40.357,8.272 -40.784,6.916 -38.735,6.353 -39.059,5.316 -41.113,5.862 -41.488,4.673 
		-39.303,4.116 -39.631,3.073 -43.119,3.933 -41.307,9.714 -37.755,8.664 -38.081,7.622 	"/>
	<path fill="#FFFFFF" d="M-34.965,5.274c-0.049-0.584-0.129-1.123-0.229-1.762l0.017-0.003c0.256,0.605,0.499,1.09,0.77,1.612
		l1.16,2.213l1.222-0.361l-0.402-5.675l-1.139,0.28l0.279,2.293c0.099,0.674,0.185,1.334,0.298,1.954l-0.015,0.005
		c-0.264-0.579-0.523-1.132-0.836-1.734l-1.118-2.174l-1.242,0.305l0.258,2.35c0.083,0.72,0.167,1.415,0.269,2.036l-0.016,0.002
		c-0.261-0.531-0.592-1.212-0.918-1.845l-1.115-2.169l-1.306,0.322l3.019,5.225l1.295-0.381L-34.965,5.274z"/>
	<path fill="#FFFFFF" d="M-29.765,3.919c0.631,0.061,0.912,0.184,1.012,0.507c0.107,0.34-0.078,0.635-0.565,0.776
		c-0.454,0.13-0.957,0.096-1.294,0.011l0.087,1.044c0.322,0.085,0.91,0.092,1.449-0.068c1.273-0.378,1.627-1.283,1.356-2.144
		c-0.228-0.726-0.75-1.099-1.676-1.217c-0.695-0.093-1.003-0.171-1.105-0.505c-0.083-0.264,0.067-0.563,0.53-0.681
		c0.451-0.114,0.837-0.056,1.048,0l-0.059-0.994c-0.322-0.076-0.737-0.098-1.275,0.033c-1.117,0.274-1.6,1.128-1.318,2.03
		C-31.334,3.48-30.652,3.822-29.765,3.919z"/>
</g>
<g>
	<path fill="#FFFFFF" d="M37.617,34.779L37.61,19.465c0-1.238-0.861-1.95-0.861-1.95s-4.018-3.781-5.217-4.98
		c-1.173-1.174-1.845-1.135-2.875-1.135h-9.944v22.023c0,0-0.038,3.691-1.574,3.691h17.875
		C35.015,37.114,37.617,37.312,37.617,34.779z M34.144,32.226H21.991v-1.727h12.152V32.226z M34.144,28.877H21.991v-1.729h12.152
		V28.877z M34.144,25.668H21.991V23.94h12.152V25.668z M34.144,22.318H21.991v-1.729h12.152V22.318z M30.655,18.048v-5.356
		l5.537,5.356H30.655z"/>
	<path fill="#FFFFFF" d="M16.211,31.538c0,0.733-0.594,1.327-1.326,1.327l0,0c-0.733,0-1.328-0.594-1.328-1.327V12.859
		c0-0.733,0.595-1.327,1.328-1.327l0,0c0.732,0,1.326,0.594,1.326,1.327V31.538z"/>
	<path fill="#FFFFFF" d="M13.562,33.563c0,0,0.483,0.708,1.248,0.708c1.112,0,1.417-0.756,1.417-0.756v1.758
		c0,0-0.647,1.744-1.292,1.744c-0.645,0-1.368-1.733-1.368-1.733L13.562,33.563z"/>
</g>
</svg>
