<?xml version="1.0" encoding="utf-8"?>
<!-- Generator: Adobe Illustrator 16.0.0, SVG Export Plug-In . SVG Version: 6.00 Build 0)  -->
<!DOCTYPE svg PUBLIC "-//W3C//DTD SVG 1.1//EN" "http://www.w3.org/Graphics/SVG/1.1/DTD/svg11.dtd">
<svg version="1.1" id="Layer_1" xmlns="http://www.w3.org/2000/svg" xmlns:xlink="http://www.w3.org/1999/xlink" x="0px" y="0px"
	 width="50px" height="50px" viewBox="0 0 50 50" enable-background="new 0 0 50 50" xml:space="preserve">
<path fill="#FFFFFF" d="M37.943,6.5H12.057c-2.762,0-5,2.359-5,5.271v26.46c0,2.91,2.238,5.27,5,5.27h25.886c2.762,0,5-2.359,5-5.27
	v-26.46C42.943,8.859,40.705,6.5,37.943,6.5z M32.215,11.862c0,0,0.094-1.015,1.014-1.015h4.984c0,0,0.922,0.092,0.922,0.923
	c0,0.829,0,5.168,0,5.168s-0.186,0.783-0.783,0.783c-0.602,0-5.215,0-5.215,0s-0.922-0.046-0.922-0.969V11.862z M25.057,17.968
	c3.912,0,7.083,3.172,7.083,7.084c0,3.909-3.172,7.085-7.083,7.085s-7.083-3.176-7.083-7.085
	C17.975,21.14,21.146,17.968,25.057,17.968z M39.223,38.075c0,0-0.064,1.077-1.076,1.077H11.807c0,0-1.029-0.196-1.029-1.029
	c0-0.831,0.038-16.024,0.038-16.024h3.498c0,0-1.994,6.842,3.572,11.43c0,0,2.97,2.708,7.37,2.631c0,0,5.339-0.226,8.234-3.91
	c0,0,3.713-4.358,2.342-10.233h3.393V38.075z"/>
</svg>
