<?xml version="1.0" encoding="utf-8"?>
<!-- Generator: Adobe Illustrator 16.0.0, SVG Export Plug-In . SVG Version: 6.00 Build 0)  -->
<!DOCTYPE svg PUBLIC "-//W3C//DTD SVG 1.1//EN" "http://www.w3.org/Graphics/SVG/1.1/DTD/svg11.dtd">
<svg version="1.1" id="Layer_1" xmlns="http://www.w3.org/2000/svg" xmlns:xlink="http://www.w3.org/1999/xlink" x="0px" y="0px"
	 width="50px" height="50px" viewBox="0 0 50 50" enable-background="new 0 0 50 50" xml:space="preserve">
<circle fill="#1A1A1A" cx="-41.625" cy="13" r="29.098"/>
<g>
	<path fill="#FFFFFF" d="M41.45,26.14l-4.669-14.901l-23.813,5.049l1.12,3.705L8.5,21.467c0,0,2.607,8.318,4.325,13.798
		c1.717,5.481,5.867,2.878,5.867,2.878s17.997-7.571,20.731-8.718C41.999,28.336,41.45,26.14,41.45,26.14z M14.712,34.351
		L11.16,23.013l3.591-0.828l4.374,14.656l1.532-0.933C15.783,38.521,14.712,34.351,14.712,34.351z M38.741,28.204
		c0,0-3.421,1.324-7.406,2.962l-2.55-8.15l-8.369,2.615l2.824,9.014c-0.834,0.385-1.583,0.745-2.207,1.067l-4.377-13.968l0,0
		l-1.223-3.9l20.774-4.783c0,0,3.227,10.288,3.861,12.317C40.706,27.405,38.741,28.204,38.741,28.204z"/>
	<polygon fill="#FFFFFF" points="37.459,20.788 30.518,22.994 31.059,24.732 37.968,22.401 	"/>
	<polygon fill="#FFFFFF" points="31.403,25.833 31.946,27.567 38.795,25.04 38.29,23.429 	"/>
	<path fill="#FFFFFF" d="M21.822,18.084l0.439,1.397c0.229,0.726,0.455,1.369,0.716,1.984l-0.016,0.005
		c-0.394-0.477-0.866-1.003-1.321-1.432l-1.602-1.513l-1.361,0.333l1.548,4.944l1.06-0.311l-0.464-1.476
		c-0.248-0.8-0.48-1.485-0.723-2.13l0.03-0.005c0.421,0.508,0.956,1.049,1.416,1.486l1.64,1.563l1.144-0.338l-1.491-4.756
		L21.822,18.084z"/>
	<polygon fill="#FFFFFF" points="26.034,21.142 25.686,20.037 27.358,19.577 27.094,18.732 25.417,19.176 25.111,18.208 
		26.893,17.753 26.627,16.901 23.782,17.603 25.26,22.318 28.157,21.463 27.889,20.611 	"/>
	<path fill="#FFFFFF" d="M30.431,18.697c-0.035-0.476-0.101-0.916-0.187-1.438l0.017-0.001c0.205,0.495,0.404,0.888,0.624,1.316
		l0.949,1.806l0.996-0.296l-0.329-4.63l-0.928,0.229l0.228,1.871c0.08,0.55,0.148,1.089,0.241,1.593l-0.009,0.006
		c-0.217-0.473-0.429-0.925-0.683-1.414l-0.914-1.773l-1.01,0.247l0.207,1.917c0.068,0.588,0.138,1.157,0.218,1.661l-0.009,0.002
		c-0.217-0.433-0.482-0.988-0.75-1.503l-0.912-1.771l-1.065,0.263l2.466,4.262l1.055-0.31L30.431,18.697z"/>
	<path fill="#FFFFFF" d="M34.677,17.593c0.515,0.049,0.745,0.149,0.823,0.412c0.088,0.278-0.064,0.519-0.461,0.634
		c-0.37,0.105-0.778,0.077-1.057,0.008l0.072,0.852c0.264,0.07,0.742,0.077,1.18-0.054c1.041-0.309,1.329-1.047,1.109-1.75
		c-0.185-0.592-0.612-0.895-1.367-0.992c-0.567-0.075-0.817-0.139-0.903-0.411c-0.066-0.216,0.059-0.46,0.434-0.557
		c0.369-0.092,0.685-0.044,0.854,0l-0.047-0.811c-0.264-0.063-0.601-0.081-1.042,0.027c-0.91,0.225-1.302,0.921-1.072,1.656
		C33.395,17.234,33.949,17.513,34.677,17.593z"/>
</g>
</svg>
