<?xml version="1.0" encoding="utf-8"?>
<!-- Generator: Adobe Illustrator 16.0.0, SVG Export Plug-In . SVG Version: 6.00 Build 0)  -->
<!DOCTYPE svg PUBLIC "-//W3C//DTD SVG 1.1//EN" "http://www.w3.org/Graphics/SVG/1.1/DTD/svg11.dtd">
<svg version="1.1" id="Layer_1" xmlns="http://www.w3.org/2000/svg" xmlns:xlink="http://www.w3.org/1999/xlink" x="0px" y="0px"
	 width="30px" height="30px" viewBox="0 0 30 30" enable-background="new 0 0 30 30" xml:space="preserve">
<circle fill="#1A1A1A" cx="-51.625" cy="3" r="29.098"/>
<path fill="#F7941E" d="M20.776,2.275H9.224c-1.526,0-2.762,1.236-2.762,2.762v19.926c0,1.526,1.236,2.764,2.762,2.764h11.553
	c1.526,0,2.763-1.237,2.763-2.764V5.037C23.539,3.511,22.303,2.275,20.776,2.275z M15,25.229c-0.852,0-1.542-0.689-1.542-1.542
	s0.69-1.542,1.542-1.542c0.852,0,1.542,0.689,1.542,1.542S15.852,25.229,15,25.229z M21.154,20.617H8.845V4.804h12.309V20.617z"/>
</svg>
