<?xml version="1.0" encoding="utf-8"?>
<!-- Generator: Adobe Illustrator 16.0.0, SVG Export Plug-In . SVG Version: 6.00 Build 0)  -->
<!DOCTYPE svg PUBLIC "-//W3C//DTD SVG 1.1//EN" "http://www.w3.org/Graphics/SVG/1.1/DTD/svg11.dtd">
<svg version="1.1" id="Layer_1" xmlns="http://www.w3.org/2000/svg" xmlns:xlink="http://www.w3.org/1999/xlink" x="0px" y="0px"
	 width="50px" height="50px" viewBox="0 0 50 50" enable-background="new 0 0 50 50" xml:space="preserve">
<g>
	<path fill="#FFFFFF" d="M32.452,19.352c-3.551,0.186-6.641,1.263-9.148,3.696c-2.533,2.458-3.69,5.47-3.375,9.204
		c-1.389-0.172-2.653-0.36-3.925-0.47c-0.44-0.036-0.961,0.017-1.333,0.226c-1.235,0.698-2.419,1.486-3.822,2.363
		c0.258-1.164,0.424-2.185,0.719-3.166c0.218-0.723,0.117-1.122-0.547-1.593c-4.265-3.01-6.063-7.516-4.717-12.155
		c1.245-4.292,4.301-6.895,8.454-8.251c5.668-1.852,12.041,0.037,15.487,4.537C31.488,15.369,32.252,17.194,32.452,19.352
		L32.452,19.352z M16.103,17.907c0.033-0.849-0.703-1.613-1.576-1.639c-0.894-0.027-1.629,0.657-1.655,1.539
		c-0.026,0.893,0.657,1.607,1.557,1.631C15.322,19.46,16.07,18.776,16.103,17.907L16.103,17.907z M24.634,16.268
		c-0.876,0.016-1.617,0.762-1.602,1.614c0.016,0.884,0.743,1.575,1.644,1.563c0.903-0.01,1.588-0.708,1.58-1.61
		C26.25,16.949,25.526,16.251,24.634,16.268z"/>
	<path fill="#FFFFFF" d="M40.436,41.5c-1.125-0.502-2.157-1.253-3.256-1.366c-1.095-0.116-2.245,0.517-3.39,0.633
		c-3.487,0.356-6.611-0.615-9.189-2.998c-4.9-4.531-4.199-11.481,1.469-15.196c5.04-3.3,12.429-2.2,15.98,2.38
		c3.1,3.997,2.736,9.301-1.048,12.658c-1.095,0.975-1.49,1.772-0.787,3.054C40.345,40.901,40.36,41.202,40.436,41.5L40.436,41.5z
		 M27.631,29.101c0.716,0.001,1.305-0.558,1.332-1.266c0.029-0.748-0.573-1.378-1.323-1.381c-0.742-0.003-1.363,0.635-1.339,1.373
		C26.325,28.532,26.92,29.1,27.631,29.101L27.631,29.101z M35.886,26.457c-0.696-0.004-1.286,0.565-1.314,1.268
		c-0.03,0.75,0.553,1.366,1.296,1.368c0.72,0.002,1.286-0.541,1.313-1.256C37.209,27.085,36.625,26.462,35.886,26.457z"/>
</g>
</svg>
