<?xml version="1.0" encoding="utf-8"?>
<!-- Generator: Adobe Illustrator 16.0.0, SVG Export Plug-In . SVG Version: 6.00 Build 0)  -->
<!DOCTYPE svg PUBLIC "-//W3C//DTD SVG 1.1//EN" "http://www.w3.org/Graphics/SVG/1.1/DTD/svg11.dtd">
<svg version="1.1" id="Layer_1" xmlns="http://www.w3.org/2000/svg" xmlns:xlink="http://www.w3.org/1999/xlink" x="0px" y="0px"
	 width="50px" height="50px" viewBox="0 0 50 50" enable-background="new 0 0 50 50" xml:space="preserve">
<g>
	<path fill="#FFFFFF" d="M43.599,18.953c0.159,2.077-0.191,4.566-1.563,4.688c-2.239,0.2-1.071-2.266-1.041-3.75
		c0.081-4.303-3.592-7.291-7.188-7.291c-1.021,0-3.387,0.69-3.021-1.459c0.163-0.948,0.966-0.935,1.77-1.041
		C38.605,9.293,43.173,13.455,43.599,18.953z"/>
	<path fill="#FFFFFF" d="M33.702,23.954c2.602,1.422,5.726,2.131,5.208,6.354c-0.124,1.012-0.736,2.364-1.353,3.228
		c-4.397,6.154-17.658,8.741-25.938,4.063c-2.777-1.569-5.651-3.865-5.208-8.438c0.382-3.936,3.028-6.984,5.625-9.581
		c2.478-2.48,5.091-4.42,8.646-5.313c3.857-0.97,4.997,2.246,3.958,5.417c2.233-0.15,6.968-2.644,9.062-0.208
		C34.624,20.547,34.271,22.47,33.702,23.954z M30.89,33.952c0.834-0.944,1.67-2.385,1.665-4.061
		c-0.01-5.177-6.531-7.089-11.664-6.667c-2.809,0.231-4.697,0.824-6.668,1.98c-1.608,0.944-3.49,2.479-3.958,4.79
		c-1.053,5.196,4.6,7.639,8.75,7.917C23.811,38.233,28.611,36.54,30.89,33.952z"/>
	<path fill="#FFFFFF" d="M38.492,18.953c0.219,1.587-0.235,2.961-1.145,3.022c-1.518,0.101-0.95-1.04-1.042-2.396
		c-0.058-0.836-0.75-1.801-1.354-2.084c-1.186-0.554-3.021,0.405-3.021-1.25c0-1.229,1.065-1.1,1.666-1.146
		C36.236,14.899,38.186,16.717,38.492,18.953z"/>
	<path fill="#FFFFFF" d="M26.307,29.37c2.219,6.707-9.344,9.826-11.458,4.063c-1.414-3.855,1.982-6.921,5.521-7.292
		C23.39,25.825,25.642,27.364,26.307,29.37z M20.995,30.516c0.471,0.815,1.554,0.23,1.458-0.416
		C22.339,29.353,20.985,29.463,20.995,30.516z M19.119,34.059c1.945-0.463,2.206-4.124-0.729-3.438
		C15.925,31.197,16.401,34.704,19.119,34.059z"/>
</g>
</svg>
