<?xml version="1.0" encoding="utf-8"?>
<!-- Generator: Adobe Illustrator 16.0.0, SVG Export Plug-In . SVG Version: 6.00 Build 0)  -->
<!DOCTYPE svg PUBLIC "-//W3C//DTD SVG 1.1//EN" "http://www.w3.org/Graphics/SVG/1.1/DTD/svg11.dtd">
<svg version="1.1" id="Layer_1" xmlns="http://www.w3.org/2000/svg" xmlns:xlink="http://www.w3.org/1999/xlink" x="0px" y="0px"
	 width="100px" height="100px" viewBox="25 25 100 100" enable-background="new 25 25 100 100" xml:space="preserve">
<g>
	<path fill="#FFFFFF" d="M103.053,69.88H46.946c-0.933,0-1.697,0.764-1.697,1.696v32.355c0,0.932,0.764,1.696,1.697,1.696H66.88
		c0.932,0,1.695-0.765,1.695-1.696V89.057c0-0.933,0-2.118,0-2.639c0-0.522,0-1.223,0-1.566c0-0.336,0.764-0.61,1.696-0.61h9.462
		c0.933,0,1.688,0.274,1.688,0.61c0,0.344,0,1.043,0,1.566c0,0.521,0,1.706,0,2.639v14.874c0,0.932,0.766,1.696,1.698,1.696h19.935
		c0.934,0,1.696-0.765,1.696-1.696V71.576C104.75,70.644,103.986,69.88,103.053,69.88z M57.412,92.567
		c0,0.933-0.761,1.695-1.694,1.695h-2.427c-0.932,0-1.694-0.763-1.694-1.695v-3.511c0-0.933,0.762-1.695,1.694-1.695h2.427
		c0.933,0,1.694,0.763,1.694,1.695V92.567z M57.412,83.772c0,0.934-0.761,1.696-1.694,1.696h-2.427
		c-0.932,0-1.694-0.763-1.694-1.696v-3.235c0-0.932,0.762-1.696,1.694-1.696h2.427c0.933,0,1.694,0.765,1.694,1.696V83.772z
		 M65.122,92.567c0,0.933-0.763,1.695-1.695,1.695h-2.424c-0.932,0-1.696-0.763-1.696-1.695v-3.511c0-0.933,0.764-1.695,1.696-1.695
		h2.424c0.933,0,1.695,0.763,1.695,1.695V92.567L65.122,92.567z M65.122,83.772c0,0.934-0.763,1.696-1.695,1.696h-2.424
		c-0.932,0-1.696-0.763-1.696-1.696v-3.235c0-0.932,0.764-1.696,1.696-1.696h2.424c0.933,0,1.695,0.765,1.695,1.696V83.772
		L65.122,83.772z M90.694,92.567c0,0.933-0.764,1.695-1.696,1.695h-2.424c-0.933,0-1.696-0.763-1.696-1.695v-3.511
		c0-0.933,0.764-1.695,1.696-1.695h2.424c0.933,0,1.696,0.763,1.696,1.695V92.567z M90.694,83.772c0,0.934-0.764,1.696-1.696,1.696
		h-2.424c-0.933,0-1.696-0.763-1.696-1.696v-3.235c0-0.932,0.764-1.696,1.696-1.696h2.424c0.933,0,1.696,0.765,1.696,1.696V83.772z
		 M98.403,92.567c0,0.933-0.765,1.695-1.696,1.695h-2.426c-0.933,0-1.695-0.763-1.695-1.695v-3.511c0-0.933,0.763-1.695,1.695-1.695
		h2.426c0.932,0,1.696,0.763,1.696,1.695V92.567z M98.403,83.772c0,0.934-0.765,1.696-1.696,1.696h-2.426
		c-0.933,0-1.695-0.763-1.695-1.696v-3.235c0-0.932,0.763-1.696,1.695-1.696h2.426c0.932,0,1.696,0.765,1.696,1.696V83.772z"/>
	<path fill="#FFFFFF" d="M46.946,66.75h56.107c0.934,0,1.092-0.466,0.354-1.035L76.343,44.801c-0.371-0.285-0.857-0.427-1.343-0.427
		c-0.485,0-0.973,0.143-1.341,0.427l-11.34,8.764c-0.256,0.196-0.493,0.291-0.698,0.291c-0.385,0-0.645-0.339-0.645-0.95v-6.769
		c0-0.933-0.765-1.697-1.696-1.697h-4.945c-0.933,0-1.694,0.764-1.694,1.697v13.21c0,0.933-0.604,2.16-1.34,2.731l-4.708,3.639
		C45.854,66.284,46.014,66.75,46.946,66.75z"/>
</g>
</svg>
