<?xml version="1.0" encoding="utf-8"?>
<!-- Generator: Adobe Illustrator 16.0.0, SVG Export Plug-In . SVG Version: 6.00 Build 0)  -->
<!DOCTYPE svg PUBLIC "-//W3C//DTD SVG 1.1//EN" "http://www.w3.org/Graphics/SVG/1.1/DTD/svg11.dtd">
<svg version="1.1" id="Layer_1" xmlns="http://www.w3.org/2000/svg" xmlns:xlink="http://www.w3.org/1999/xlink" x="0px" y="0px"
	 width="100px" height="100px" viewBox="25 25 100 100" enable-background="new 25 25 100 100" xml:space="preserve">
<g>
	<path fill="#FFFFFF" d="M99.271,85.113L76.58,62.957c-0.872-0.856-2.292-0.856-3.167,0L50.729,85.113
		c-0.876,0.854-0.876,2.238,0,3.092c0.873,0.855,2.292,0.855,3.165,0l21.103-20.61l21.107,20.61c0.437,0.428,1.01,0.639,1.585,0.639
		c0.573,0,1.143-0.211,1.581-0.639C100.147,87.352,100.147,85.967,99.271,85.113z"/>
	<path fill="#FFFFFF" d="M91.482,86.738c-1.236,0-2.239,0.977-2.239,2.188v15.758h-8.299V90.789h-5.139h-1.613h-5.141v0.768
		l0.227,13.127h-8.526v-15.76c0-1.209-1.001-2.186-2.237-2.186s-2.239,0.977-2.239,2.186v17.945c0,1.209,1.002,2.186,2.239,2.186
		h32.967c1.237,0,2.24-0.977,2.24-2.186V88.924C93.723,87.715,92.72,86.738,91.482,86.738z"/>
	<polygon fill="#FFFFFF" points="69.489,54.03 69.489,63.146 75,57.637 80.51,63.146 80.51,54.03 84.977,58.5 92.771,58.715 
		75,40.945 57.228,58.715 65.02,58.5 	"/>
</g>
</svg>
