<?xml version="1.0" encoding="utf-8"?>
<!-- Generator: Adobe Illustrator 16.0.0, SVG Export Plug-In . SVG Version: 6.00 Build 0)  -->
<!DOCTYPE svg PUBLIC "-//W3C//DTD SVG 1.1//EN" "http://www.w3.org/Graphics/SVG/1.1/DTD/svg11.dtd">
<svg version="1.1" id="Layer_1" xmlns="http://www.w3.org/2000/svg" xmlns:xlink="http://www.w3.org/1999/xlink" x="0px" y="0px"
	 width="100px" height="100px" viewBox="0 0 100 100" enable-background="new 0 0 100 100" xml:space="preserve">
<g>
	<path fill="#FFFFFF" d="M29.94,27.92c-0.789,2.194-1.674,4.401-1.951,6.732c-0.26,2.192,0.251,3.786,1.324,5.664
		c1.076,1.882,2.962,4.642,5.226,5.906v29.406h5.11V46.255c2.288-1.252,4.198-4.04,5.282-5.937c1.073-1.879,1.583-3.473,1.324-5.665
		c-0.278-2.332-1.163-4.537-1.951-6.732c-0.622-1.728-1.859-6.018-4.145-6.285l1.363,12.608h-1.703l-1.364-12.659h-1.333h-1.334
		l-1.363,12.659h-1.703l1.362-12.608C31.799,21.901,30.561,26.193,29.94,27.92z"/>
	<path fill="#FFFFFF" d="M64.696,75.629V46.694c4.249-1.353,7.382-6.031,7.382-11.597c0-6.624-4.437-14.726-9.906-14.726
		c-5.475,0-9.908,8.102-9.908,14.726c0,5.541,3.105,10.203,7.324,11.578v28.954H64.696z"/>
</g>
<g>
	<path fill="#D8D9DD" d="M148.176,47.113c1.798,1.174,3.943,1.857,6.251,1.857c6.332,0,11.464-5.135,11.464-11.467
		s-5.132-11.465-11.464-11.465c-5.758,0-10.522,4.242-11.342,9.773h11.342h3.759l-2.493,2.814L148.176,47.113z"/>
	<path fill="#D8D9DD" d="M128.311,61.262v1.275v1.277v14.211c-3.164,0.492-5.473,2.014-5.473,3.818h15.344
		c0-1.674-1.984-3.104-4.795-3.693V63.814v-1.277v-1.275l13.438-15.176l7.602-8.582H142.96h-35.689L128.311,61.262z"/>
</g>
</svg>
