<?xml version="1.0" encoding="utf-8"?>
<!-- Generator: Adobe Illustrator 16.0.0, SVG Export Plug-In . SVG Version: 6.00 Build 0)  -->
<!DOCTYPE svg PUBLIC "-//W3C//DTD SVG 1.1//EN" "http://www.w3.org/Graphics/SVG/1.1/DTD/svg11.dtd">
<svg version="1.1" id="Layer_1" xmlns="http://www.w3.org/2000/svg" xmlns:xlink="http://www.w3.org/1999/xlink" x="0px" y="0px"
	 width="100px" height="100px" viewBox="0 0 100 100" enable-background="new 0 0 100 100" xml:space="preserve">
<g>
	<rect x="43.349" y="55.938" fill="#FFFFFF" width="13.668" height="10.865"/>
	<polygon fill="#FFFFFF" points="41.507,75.152 41.507,68.646 27.667,68.646 29.375,75.152 	"/>
	<rect x="43.349" y="47.038" fill="#FFFFFF" width="13.668" height="7.059"/>
	<rect x="43.349" y="68.646" fill="#FFFFFF" width="13.668" height="6.506"/>
	<polygon fill="#FFFFFF" points="75.658,55.938 58.857,55.938 58.857,66.804 72.811,66.804 	"/>
	<polygon fill="#FFFFFF" points="58.857,75.152 70.624,75.152 72.328,68.646 58.857,68.646 	"/>
	<polygon fill="#FFFFFF" points="41.507,55.938 24.34,55.938 27.188,66.804 41.507,66.804 	"/>
	<path fill="#FFFFFF" d="M22.01,47.038l1.848,7.059h17.649v-7.059h-6.805l9.491-12.457c-1.946-0.301-3.591-1.562-4.394-3.349
		L27.76,47.038H22.01z"/>
	<path fill="#FFFFFF" d="M48.976,27.927c-0.428-1.837-2.064-3.079-3.873-3.079c-0.3,0-0.603,0.034-0.907,0.106
		c-2.039,0.476-3.342,2.442-3.028,4.48c0.016,0.1,0.03,0.201,0.056,0.301c0.429,1.836,2.064,3.078,3.873,3.078
		c0.155,0,0.309-0.011,0.465-0.028c0.146-0.018,0.295-0.042,0.442-0.077c1.839-0.429,3.074-2.066,3.074-3.875
		c0-0.058-0.004-0.115-0.002-0.174C49.064,28.417,49.034,28.171,48.976,27.927z"/>
	<path fill="#FFFFFF" d="M60.198,31.233c-0.804,1.786-2.446,3.046-4.394,3.348l9.488,12.457h-6.436v7.059h17.283l1.85-7.059h-5.751
		L60.198,31.233z"/>
	<path fill="#FFFFFF" d="M51.02,27.927c-0.056,0.246-0.089,0.49-0.099,0.733c0.003,0.059-0.002,0.116-0.002,0.175
		c0,1.807,1.238,3.445,3.075,3.874c0.148,0.035,0.295,0.06,0.442,0.077c0.155,0.017,0.311,0.028,0.463,0.028
		c1.811,0,3.446-1.241,3.874-3.078c0.023-0.1,0.04-0.202,0.054-0.301c0.316-2.037-0.984-4.004-3.025-4.48
		c-0.302-0.072-0.609-0.105-0.907-0.105C53.086,24.848,51.447,26.089,51.02,27.927z"/>
</g>
</svg>
