<?xml version="1.0" encoding="utf-8"?>
<!-- Generator: Adobe Illustrator 16.0.0, SVG Export Plug-In . SVG Version: 6.00 Build 0)  -->
<!DOCTYPE svg PUBLIC "-//W3C//DTD SVG 1.1//EN" "http://www.w3.org/Graphics/SVG/1.1/DTD/svg11.dtd">
<svg version="1.1" id="Layer_1" xmlns="http://www.w3.org/2000/svg" xmlns:xlink="http://www.w3.org/1999/xlink" x="0px" y="0px"
	 width="100px" height="100px" viewBox="0 0 100 100" enable-background="new 0 0 100 100" xml:space="preserve">
<g>
	<path fill="#FFFFFF" d="M62.596,43.172c1.797,1.174,3.943,1.857,6.25,1.857c6.332,0,11.465-5.135,11.465-11.467
		s-5.133-11.465-11.465-11.465c-5.758,0-10.521,4.242-11.342,9.773h11.342h3.76l-2.494,2.814L62.596,43.172z"/>
	<path fill="#FFFFFF" d="M42.729,57.32v1.275v1.277v14.211c-3.164,0.492-5.473,2.014-5.473,3.818h15.345
		c0-1.674-1.985-3.104-4.796-3.693V59.873v-1.277V57.32l13.438-15.176l7.602-8.582H57.379H21.689L42.729,57.32z"/>
</g>
</svg>
