<?xml version="1.0" encoding="utf-8"?>
<!-- Generator: Adobe Illustrator 16.0.0, SVG Export Plug-In . SVG Version: 6.00 Build 0)  -->
<!DOCTYPE svg PUBLIC "-//W3C//DTD SVG 1.1//EN" "http://www.w3.org/Graphics/SVG/1.1/DTD/svg11.dtd">
<svg version="1.1" id="Layer_1" xmlns="http://www.w3.org/2000/svg" xmlns:xlink="http://www.w3.org/1999/xlink" x="0px" y="0px"
	 width="100px" height="100px" viewBox="0 0 100 100" enable-background="new 0 0 100 100" xml:space="preserve">
<path fill="#D8D9DD" d="M181.914,24.457h-67.221v67.219h67.221V24.457z M176.715,86.477h-56.821V29.656h56.821V86.477z"/>
<g>
	<polygon fill="#FFFFFF" points="41.977,46.164 41.977,74.254 37.367,74.254 37.367,79.67 54.787,79.67 54.787,74.254 
		50.174,74.254 50.174,46.164 	"/>
	<path fill="#FFFFFF" d="M50.174,31.047v-3.901h1.537c1.699,0,3.076-1.525,3.076-3.407c0-1.883-1.377-3.408-3.076-3.408h-11.27
		c-1.698,0-3.074,1.525-3.074,3.408c0,1.882,1.377,3.407,3.074,3.407h1.536v3.901H50.174z"/>
	<polygon fill="#FFFFFF" points="56.229,32.74 50.174,32.74 41.977,32.74 28.253,32.74 28.253,44.471 41.977,44.471 50.174,44.471 
		56.229,44.471 56.229,47.999 73.746,38.268 56.229,28.535 	"/>
</g>
</svg>
