<?xml version="1.0" encoding="utf-8"?>
<!-- Generator: Adobe Illustrator 16.0.0, SVG Export Plug-In . SVG Version: 6.00 Build 0)  -->
<!DOCTYPE svg PUBLIC "-//W3C//DTD SVG 1.1//EN" "http://www.w3.org/Graphics/SVG/1.1/DTD/svg11.dtd">
<svg version="1.1" id="Layer_1" xmlns="http://www.w3.org/2000/svg" xmlns:xlink="http://www.w3.org/1999/xlink" x="0px" y="0px"
	 width="100px" height="100px" viewBox="0 0 100 100" enable-background="new 0 0 100 100" xml:space="preserve">
<g>
	<path fill="#FFFFFF" d="M40.387,46.703h19.226l0.86,1.088h3.104l-5.131-6.505h-3.104l0.676,0.851H43.986l0.672-0.851h-3.104
		l-5.127,6.505h3.103L40.387,46.703z M42.637,43.847h14.73l0.896,1.142H41.735L42.637,43.847z"/>
	<path fill="#FFFFFF" d="M62.715,16.031H37.851v24.399h24.863L62.715,16.031L62.715,16.031z M43.061,17.682h14.444v1.535H43.061
		V17.682L43.061,17.682z M44.182,37.637h-4.366v-2.201h4.366V37.637z M60.744,37.637h-4.36v-2.201h4.36V37.637z M60.744,33.12
		H39.816V21.149h20.928V33.12L60.744,33.12z"/>
</g>
<g>
	<path fill="#FFFFFF" d="M26.768,68.564c-1.443,0-2.635,0.91-2.808,2.098h5.618C29.402,69.475,28.212,68.564,26.768,68.564z"/>
	<path fill="#FFFFFF" d="M21.035,81.969h3.78c0.575,0,1.04-0.396,1.04-0.876v-2.548h12.876v2.548c0,0.48,0.468,0.876,1.039,0.876
		h3.784c0.569,0,1.033-0.396,1.033-0.876v-2.548v-1.839V53.442H20v23.264v1.839v2.548C20,81.573,20.464,81.969,21.035,81.969z
		 M42.378,75.783h-4.906v-2.179h4.906V75.783L42.378,75.783z M42.378,71.484h-9.153V58.679h9.153V71.484z M25.855,55.077h12.876
		v1.521H25.855V55.077z M22.208,58.679h9.153v12.806h-1.833h-5.521h-1.8V58.679z M22.208,73.604h4.909v2.179h-4.909V73.604z"/>
</g>
<g>
	<path fill="#FFFFFF" d="M80,63.982l-2.763-3.191l-2.56-5.167H57.92l-2.551,5.167l-2.771,3.191v9.331v0.708v3.324
		c0,0.729,0.564,1.334,1.259,1.334h4.01c0.694,0,1.26-0.604,1.26-1.334v-3.324h14.353v3.324c0,0.729,0.557,1.334,1.251,1.334h4.019
		c0.686,0,1.251-0.604,1.251-1.334v-3.324l0,0V63.982L80,63.982z M59.44,57.503h13.718l2.308,4.717H57.141L59.44,57.503z
		 M60.533,71.709h-5.473V68.66h5.473V71.709z M77.537,71.709h-5.463V68.66h5.463V71.709z"/>
</g>
</svg>
